<?xml version="1.0" encoding="utf-8"?>
<!-- Generator: Adobe Illustrator 18.1.1, SVG Export Plug-In . SVG Version: 6.00 Build 0)  -->
<!DOCTYPE svg PUBLIC "-//W3C//DTD SVG 1.1//EN" "http://www.w3.org/Graphics/SVG/1.1/DTD/svg11.dtd">
<svg version="1.1"
	 id="svg2" xmlns:dc="http://purl.org/dc/elements/1.1/" xmlns:cc="http://creativecommons.org/ns#" xmlns:rdf="http://www.w3.org/1999/02/22-rdf-syntax-ns#" xmlns:svg="http://www.w3.org/2000/svg"
	 xmlns="http://www.w3.org/2000/svg" xmlns:xlink="http://www.w3.org/1999/xlink" x="0px" y="0px" viewBox="-439 477 120 48"
	 enable-background="new -439 477 120 48" xml:space="preserve">
<path id="path243" fill="#201C1D" d="M-399.7,495.2c-2.3,0-4.8,0.9-5.4,3.8c-0.1,0.3,0.1,0.5,0.3,0.5l2.3,0.3c0.2,0,0.4-0.2,0.4-0.5
	c0.2-1,1-1.5,1.9-1.5c0.5,0,1.1,0.2,1.3,0.6c0.3,0.5,0.3,1.2,0.3,1.8v0.3c-1.4,0.2-3.2,0.3-4.5,0.8c-1.5,0.7-2.6,2-2.6,4
	c0,2.6,1.6,3.8,3.6,3.8c1.7,0,2.7-0.4,4-1.8c0.4,0.6,0.6,0.9,1.4,1.6c0.2,0.1,0.4,0.1,0.6-0.1v0c0.5-0.4,1.4-1.2,1.8-1.7
	c0.2-0.2,0.2-0.4,0-0.7c-0.4-0.6-0.9-1.1-0.9-2.3v-3.8c0-1.6,0.1-3.1-1-4.2C-397,495.5-398.5,495.2-399.7,495.2z M-368.2,495.2
	c-2.3,0-4.8,0.9-5.4,3.8c-0.1,0.3,0.1,0.5,0.3,0.5l2.3,0.3c0.2,0,0.4-0.2,0.4-0.5c0.2-1,1-1.5,1.9-1.5c0.5,0,1.1,0.2,1.3,0.6
	c0.3,0.5,0.3,1.2,0.3,1.8v0.3c-1.4,0.2-3.2,0.3-4.5,0.8c-1.5,0.7-2.6,2-2.6,4c0,2.6,1.6,3.8,3.6,3.8c1.7,0,2.6-0.4,4-1.8
	c0.4,0.6,0.6,0.9,1.4,1.6c0.2,0.1,0.4,0.1,0.6-0.1v0c0.5-0.4,1.4-1.2,1.8-1.7c0.2-0.2,0.2-0.4,0-0.7c-0.4-0.6-0.9-1.1-0.9-2.3v-3.8
	c0-1.6,0.1-3.1-1.1-4.2C-365.5,495.5-367,495.2-368.2,495.2z M-385.9,495.3c-1.5,0-2.6,0.7-3.2,2.3h0V496c0-0.2-0.2-0.4-0.4-0.4
	h-2.2c-0.3,0-0.5,0.2-0.5,0.5v12.7c0,0.2,0.2,0.4,0.4,0.4h2.4c0.3,0,0.5-0.2,0.5-0.5v-6.7c0-1.5-0.1-3.5,1.7-3.5
	c1.7,0,1.5,2.1,1.5,3.5v6.7c0,0.2,0.2,0.5,0.4,0.5h2.4c0.3,0,0.5-0.2,0.5-0.5v-6.7c0-0.7,0-1.8,0.2-2.4c0.2-0.6,0.9-1.1,1.4-1.1
	c0.7,0,1.2,0.2,1.4,1.1c0.1,0.5,0.1,1.8,0.1,2.4v6.7c0,0.2,0.2,0.5,0.4,0.5h2.4c0.3,0,0.5-0.2,0.5-0.5v-8c0-1.4,0.1-2.9-0.6-4
	c-0.7-1-1.8-1.4-2.8-1.4c-1.4,0-2.7,0.7-3.3,2.3C-383.4,496-384.4,495.3-385.9,495.3z M-345,495.3c-3.5,0-5.4,3.1-5.4,7
	c0,3.9,1.9,7.1,5.4,7.1c3.4,0,5.5-3.1,5.5-6.9C-339.5,498.4-341.4,495.3-345,495.3z M-331.3,495.3c-1.7,0-2.6,0.8-3.3,2.6h0v-1.9
	c0-0.2-0.2-0.3-0.4-0.3h-2.2c-0.2,0-0.4,0.2-0.5,0.4v12.7c0,0.2,0.2,0.5,0.4,0.5h2.4c0.3,0,0.5-0.2,0.5-0.5v-6.8
	c0-0.9,0.1-1.6,0.4-2.4c0.3-0.6,0.8-1,1.4-1c1.7,0,1.5,2,1.5,3.4v6.9c0,0.2,0.2,0.4,0.4,0.4h2.4c0.2,0,0.4-0.2,0.5-0.4v-8
	c0-1.2,0-2.9-0.6-3.9C-329.1,495.7-330.2,495.3-331.3,495.3L-331.3,495.3z M-360.1,495.5c-0.2,0-0.4,0.2-0.4,0.5v1.8
	c0,0.3,0.2,0.5,0.4,0.5h4.1l-4.7,7c-0.3,0.4-0.3,1-0.3,1.2v1.8c0,0.3,0.3,0.6,0.6,0.4c2.7-1.5,5.9-1.3,8.3,0
	c0.3,0.2,0.6-0.1,0.6-0.4v-1.9c0-0.3-0.1-0.5-0.4-0.7c-1.4-0.8-3-1-4.5-1l4.1-6c0.4-0.5,0.6-0.9,0.6-1.1V496c0-0.3-0.2-0.5-0.4-0.5
	H-360.1z M-345,497.9c0.8,0,1.3,0.3,1.6,1.2c0.3,1,0.3,2.3,0.3,3.3c0,1.6-0.1,4.3-1.9,4.3c-1.9,0-1.9-3.3-1.9-4.9
	C-346.9,500.3-346.8,497.9-345,497.9z M-398.4,502.5v0.5c0,1,0,1.8-0.4,2.6c-0.4,0.7-1,1.1-1.7,1.1c-0.9,0-1.5-0.7-1.5-1.8
	C-402,502.9-400.1,502.5-398.4,502.5z M-366.9,502.5v0.5c0,1,0,1.8-0.4,2.6c-0.4,0.7-1,1.1-1.7,1.1c-0.9,0-1.5-0.7-1.5-1.8
	C-370.5,502.9-368.6,502.5-366.9,502.5z"/>
<path id="path257" d="M-351.3,509.5v1.8h1.2v-1.8H-351.3z M-386.6,509.8v12.9h1.1v-1.2c0.2,0.5,0.5,0.8,0.8,1
	c0.3,0.2,0.7,0.3,1.1,0.3c0.8,0,1.5-0.4,2.2-1.3s0.9-2.1,0.9-3.7c0-1-0.1-1.9-0.4-2.6c-0.3-0.7-0.6-1.3-1.1-1.6
	c-0.5-0.4-1-0.6-1.5-0.6c-0.4,0-0.8,0.1-1.1,0.3c-0.3,0.2-0.6,0.5-0.8,1v-4.6H-386.6z M-375.1,512.8c-0.8,0-1.5,0.3-2,0.8
	c-0.5,0.5-0.7,1.1-0.7,1.9c0,0.5,0.1,0.9,0.3,1.2s0.4,0.7,0.8,0.9c0.3,0.2,1,0.5,1.9,0.8c0.7,0.2,1,0.4,1.2,0.5
	c0.2,0.2,0.4,0.5,0.4,0.8c0,0.4-0.1,0.8-0.4,1.1c-0.3,0.3-0.7,0.4-1.2,0.4s-1-0.1-1.3-0.5s-0.5-0.8-0.6-1.5l-1.2,0.2
	c0.3,2,1.3,3,3,3c0.9,0,1.6-0.3,2.2-0.8s0.8-1.3,0.8-2.2c0-0.5-0.1-0.9-0.2-1.2c-0.2-0.3-0.4-0.6-0.7-0.8c-0.3-0.2-1-0.5-2-0.8
	c-0.7-0.3-1.2-0.4-1.3-0.6c-0.2-0.2-0.4-0.5-0.4-0.8c0-0.4,0.1-0.7,0.4-0.9c0.3-0.2,0.7-0.3,1.2-0.3c0.9,0,1.5,0.5,1.6,1.5l1.2-0.2
	c-0.1-0.6-0.2-1.2-0.4-1.5s-0.5-0.6-0.9-0.8C-374.1,512.9-374.5,512.8-375.1,512.8z M-367.6,512.8c-1,0-1.8,0.4-2.4,1.2
	c-0.6,0.8-0.9,2.1-0.9,3.7c0,1.6,0.3,2.8,0.9,3.6c0.6,0.8,1.4,1.2,2.5,1.2c0.8,0,1.5-0.2,2-0.8c0.5-0.5,0.9-1.3,1.2-2.2l-1.2-0.2
	c-0.4,1.3-1,1.9-1.9,1.9c-0.6,0-1.1-0.2-1.5-0.8c-0.4-0.5-0.6-1.3-0.7-2.4h5.4v-0.4c0-1.6-0.3-2.8-0.9-3.6
	C-365.9,513.3-366.7,512.8-367.6,512.8z M-360.2,512.8c-0.3,0-0.5,0.1-0.8,0.3s-0.5,0.7-0.8,1.3V513h-1.1v9.3h1.2v-4.9
	c0-0.7,0.1-1.3,0.2-1.9c0.1-0.3,0.3-0.6,0.5-0.8s0.5-0.3,0.7-0.3c0.3,0,0.6,0.1,0.9,0.3l0.4-1.5C-359.4,513-359.8,512.8-360.2,512.8
	z M-345.3,512.8c-1,0-1.8,0.4-2.4,1.2c-0.6,0.8-0.9,2-0.9,3.7c0,1.6,0.3,2.8,0.9,3.7c0.6,0.8,1.4,1.2,2.3,1.2c0.8,0,1.4-0.3,2-0.9
	c0.6-0.6,0.9-1.4,1-2.6l-1.2-0.2c-0.1,0.8-0.3,1.4-0.6,1.8c-0.3,0.4-0.7,0.6-1.2,0.6c-0.6,0-1.1-0.3-1.5-0.8
	c-0.4-0.6-0.6-1.5-0.6-2.8c0-1.2,0.2-2.1,0.6-2.7s0.9-0.9,1.5-0.9c0.4,0,0.7,0.2,1,0.5c0.3,0.3,0.5,0.8,0.6,1.4l1.2-0.2
	c-0.1-1-0.5-1.7-1-2.2C-343.9,513.1-344.5,512.8-345.3,512.8z M-338.3,512.8c-1,0-1.8,0.4-2.4,1.2s-0.9,2.1-0.9,3.7
	c0,1.6,0.3,2.8,0.9,3.6c0.6,0.8,1.4,1.2,2.5,1.2c0.8,0,1.5-0.2,2-0.8c0.5-0.5,0.9-1.3,1.2-2.2l-1.2-0.2c-0.4,1.3-1,1.9-1.9,1.9
	c-0.6,0-1.1-0.2-1.5-0.8c-0.4-0.5-0.6-1.3-0.7-2.4h5.4v-0.4c0-1.6-0.3-2.8-0.9-3.6C-336.6,513.3-337.4,512.8-338.3,512.8z
	 M-331.1,512.8c-0.8,0-1.5,0.3-2,0.8c-0.5,0.5-0.7,1.1-0.7,1.9c0,0.5,0.1,0.9,0.2,1.2c0.2,0.4,0.4,0.7,0.8,0.9
	c0.3,0.2,1,0.5,1.9,0.8c0.7,0.2,1.1,0.4,1.2,0.5c0.2,0.2,0.4,0.5,0.4,0.8c0,0.4-0.1,0.8-0.4,1.1c-0.3,0.3-0.7,0.4-1.2,0.4
	c-0.5,0-1-0.1-1.3-0.5c-0.3-0.3-0.5-0.8-0.6-1.5l-1.2,0.2c0.3,2,1.3,3,3,3c0.9,0,1.7-0.3,2.2-0.8s0.8-1.3,0.8-2.2
	c0-0.5-0.1-0.9-0.2-1.2s-0.4-0.6-0.7-0.8c-0.3-0.2-0.9-0.5-1.9-0.8c-0.7-0.3-1.2-0.4-1.3-0.6c-0.2-0.2-0.4-0.5-0.4-0.8
	c0-0.4,0.1-0.7,0.4-0.9s0.7-0.3,1.2-0.3c0.9,0,1.5,0.5,1.6,1.5l1.2-0.2c-0.1-0.6-0.2-1.2-0.4-1.5c-0.2-0.3-0.5-0.6-0.9-0.8
	C-330.1,512.9-330.5,512.8-331.1,512.8z M-359,513l2.7,9.3h1.2l2.7-9.3h-1.2l-1.6,5.7c-0.2,0.7-0.4,1.3-0.5,1.8
	c-0.1-0.6-0.3-1.3-0.4-1.9l-1.6-5.6H-359z M-351.3,513v9.3h1.2V513H-351.3z M-391.4,513.2c-1,0-1.7,0.4-2.4,1.3
	c-0.6,0.8-1,2.1-1,3.7c0,1.6,0.3,2.7,0.9,3.6s1.5,1.2,2.5,1.2c0.8,0,1.5-0.3,2-0.8c0.5-0.5,0.9-1.3,1.1-2.2l-1.2-0.2
	c-0.4,1.3-1,1.9-1.9,1.9c-0.6,0-1.1-0.2-1.5-0.8c-0.4-0.5-0.6-1.3-0.7-2.4h5.3l0-0.4c0-1.6-0.3-2.8-0.9-3.6
	S-390.4,513.2-391.4,513.2z M-405.1,513.4l2.2,9.3h1.3l1.4-7.2l0.2,1.6l1.2,5.6h1.2l2.2-9.3h-1.2l-1.2,5.4l-0.4,1.8l-0.4-1.8
	l-1.1-5.4h-1.2l-1.1,5.5l-0.4,1.9l-0.4-2l-1.1-5.4H-405.1z M-327.3,513.5v0.4h1.2v3.1h0.5v-3.1h1.2v-0.4H-327.3z M-324,513.5v3.6
	h0.4v-3l1,3h0.4l1-3v3h0.5v-3.6h-0.7l-0.8,2.5c-0.1,0.2-0.1,0.4-0.2,0.6l-0.2-0.5l-0.8-2.5H-324z M-367.6,514.1
	c0.6,0,1.1,0.3,1.5,0.9c0.3,0.4,0.4,1,0.5,1.8h-4c0-0.8,0.3-1.5,0.7-1.9S-368.2,514.1-367.6,514.1z M-338.3,514.1
	c0.6,0,1.1,0.3,1.5,0.9c0.3,0.4,0.4,1,0.5,1.8h-4c0-0.8,0.3-1.5,0.7-1.9C-339.3,514.4-338.9,514.1-338.3,514.1z M-391.4,514.5
	c0.6,0,1.1,0.3,1.5,0.9c0.3,0.4,0.4,1,0.5,1.8h-4c0-0.8,0.2-1.5,0.6-2C-392.4,514.7-391.9,514.5-391.4,514.5z M-383.6,514.5
	c0.5,0,1,0.3,1.4,0.9c0.4,0.6,0.5,1.5,0.5,2.7c0,1.2-0.2,2.1-0.6,2.7c-0.4,0.6-0.8,0.9-1.3,0.9c-0.4,0-0.7-0.1-1-0.4
	c-0.3-0.3-0.5-0.6-0.7-1.1c-0.2-0.5-0.2-1.2-0.2-2.2c0-1.1,0.2-2,0.6-2.6S-384.1,514.5-383.6,514.5z"/>
<path id="polygon287" fill="#F7A80D" d="M-422.6,504.6l-4.7,2l4.3,1.8l5-1.8L-422.6,504.6z M-429.6,507.1l-0.2,9l6.8,3v-9.3
	L-429.6,507.1z M-415.6,507.1l-6.2,2.3v8.8l6.2-2.5V507.1z"/>
<path id="polygon311" fill="#F7A80D" d="M-408.2,479.1l-4.7,2l4.3,1.8l5-1.8L-408.2,479.1z M-414.8,481.7v9l5.8,1.7l0.2-8.2
	L-414.8,481.7z M-401.8,482.2l-5.5,2.3v8.8l5.5-2.5V482.2z"/>
<path id="use3387" fill="#F7A80D" d="M-430.3,491.7l-4.7,2l4.3,1.8l5-1.8L-430.3,491.7z M-437.3,494.2l-0.2,9l6.8,3v-9.3
	L-437.3,494.2z M-423.3,494.2l-6.2,2.3v8.8l6.2-2.5V494.2z"/>
<path id="use3389" fill="#F7A80D" d="M-415.3,491.4l-4.7,2l4.3,1.8l5-1.8L-415.3,491.4z M-422.3,493.9l-0.2,9l6.8,3v-9.3
	L-422.3,493.9z M-408.3,493.9l-6.2,2.3v8.8l6.2-2.5V493.9z"/>
<path id="use3391" fill="#F7A80D" d="M-393.6,479.1l-4.7,2l4.3,1.8l5-1.8L-393.6,479.1z M-400.6,481.6l-0.2,9l6.8,3v-9.3
	L-400.6,481.6z M-386.6,481.6l-6.2,2.3v8.8l6.2-2.5V481.6z"/>
</svg>
