<?xml version="1.0" encoding="utf-8"?>
<!-- Generator: Adobe Illustrator 18.1.1, SVG Export Plug-In . SVG Version: 6.00 Build 0)  -->
<!DOCTYPE svg PUBLIC "-//W3C//DTD SVG 1.1//EN" "http://www.w3.org/Graphics/SVG/1.1/DTD/svg11.dtd">
<svg version="1.1" id="Layer_1" xmlns="http://www.w3.org/2000/svg" xmlns:xlink="http://www.w3.org/1999/xlink" x="0px" y="0px"
	 viewBox="0 0 140.8 69" enable-background="new 0 0 140.8 69" xml:space="preserve">
<path id="path243" fill="#201C1D" d="M52.8,30.3c-2.3,0-4.8,0.9-5.4,3.8c-0.1,0.3,0.1,0.5,0.3,0.5l2.3,0.3c0.2,0,0.4-0.2,0.4-0.5
	c0.2-1,1-1.5,1.9-1.5c0.5,0,1.1,0.2,1.3,0.6c0.3,0.5,0.3,1.2,0.3,1.8v0.3c-1.4,0.2-3.2,0.3-4.5,0.8c-1.5,0.7-2.6,2-2.6,4
	c0,2.6,1.6,3.8,3.6,3.8c1.7,0,2.7-0.4,4-1.8c0.4,0.7,0.6,0.9,1.4,1.6c0.2,0.1,0.4,0.1,0.6-0.1v0c0.5-0.4,1.4-1.2,1.8-1.7
	c0.2-0.2,0.2-0.4,0-0.7c-0.4-0.6-0.9-1.1-0.9-2.3v-3.8c0-1.6,0.1-3.1-1-4.2C55.5,30.6,54,30.3,52.8,30.3z M84.3,30.3
	c-2.3,0-4.8,0.9-5.4,3.8c-0.1,0.3,0.1,0.5,0.3,0.5l2.3,0.3c0.2,0,0.4-0.2,0.4-0.5c0.2-1,1-1.5,1.9-1.5c0.5,0,1.1,0.2,1.3,0.6
	c0.3,0.5,0.3,1.2,0.3,1.8v0.3c-1.4,0.2-3.2,0.3-4.5,0.8c-1.5,0.7-2.6,2-2.6,4c0,2.6,1.6,3.8,3.6,3.8c1.7,0,2.6-0.4,4-1.8
	c0.4,0.7,0.6,0.9,1.4,1.6c0.2,0.1,0.4,0.1,0.6-0.1v0c0.5-0.4,1.4-1.2,1.8-1.7c0.2-0.2,0.2-0.4,0-0.7c-0.4-0.6-0.9-1.1-0.9-2.3v-3.8
	c0-1.6,0.1-3.1-1.1-4.2C87,30.6,85.5,30.3,84.3,30.3z M66.6,30.4c-1.5,0-2.6,0.7-3.2,2.3h0v-1.7c0-0.2-0.2-0.4-0.4-0.4h-2.2
	c-0.3,0-0.5,0.2-0.5,0.5v12.7c0,0.2,0.2,0.4,0.4,0.4h2.4c0.3,0,0.5-0.2,0.5-0.5V37c0-1.5-0.1-3.5,1.7-3.5c1.7,0,1.5,2.1,1.5,3.5v6.7
	c0,0.2,0.2,0.5,0.4,0.5h2.4c0.3,0,0.5-0.2,0.5-0.5V37c0-0.7,0-1.8,0.2-2.4c0.2-0.6,0.9-1.1,1.4-1.1c0.7,0,1.2,0.2,1.4,1.1
	c0.1,0.5,0.1,1.8,0.1,2.4v6.7c0,0.2,0.2,0.5,0.4,0.5H76c0.3,0,0.5-0.2,0.5-0.5v-8c0-1.4,0.1-2.9-0.6-4c-0.7-1-1.8-1.4-2.8-1.4
	c-1.4,0-2.7,0.7-3.3,2.3C69,31.2,68.1,30.4,66.6,30.4z M107.5,30.4c-3.5,0-5.4,3.1-5.4,7c0,3.9,1.9,7.1,5.4,7.1
	c3.4,0,5.5-3.1,5.5-6.9C113,33.5,111.1,30.4,107.5,30.4z M121.2,30.4c-1.7,0-2.6,0.8-3.3,2.6h0V31c0-0.2-0.2-0.3-0.4-0.3h-2.2
	c-0.2,0-0.4,0.2-0.5,0.4v12.7c0,0.2,0.2,0.5,0.4,0.5h2.4c0.3,0,0.5-0.2,0.5-0.5v-6.8c0-0.9,0.1-1.6,0.4-2.4c0.3-0.6,0.8-1,1.4-1
	c1.7,0,1.5,2,1.5,3.4v6.9c0,0.2,0.2,0.4,0.4,0.4h2.4c0.2,0,0.4-0.2,0.5-0.4v-8c0-1.2,0-2.9-0.6-3.9
	C123.4,30.8,122.3,30.4,121.2,30.4L121.2,30.4z M92.3,30.6c-0.2,0-0.4,0.2-0.4,0.5v1.8c0,0.3,0.2,0.5,0.4,0.5h4.1l-4.7,7
	c-0.3,0.4-0.3,1-0.3,1.2v1.8c0,0.3,0.3,0.6,0.6,0.4c2.7-1.5,5.9-1.3,8.3,0c0.3,0.2,0.6-0.1,0.6-0.4v-1.9c0-0.3-0.1-0.5-0.4-0.7
	c-1.4-0.8-3-1-4.5-1l4.1-6c0.4-0.5,0.6-0.9,0.6-1.1v-1.6c0-0.3-0.2-0.5-0.4-0.5H92.3z M107.5,33c0.8,0,1.3,0.3,1.6,1.2
	c0.3,1,0.3,2.3,0.3,3.3c0,1.6-0.1,4.3-1.9,4.3c-1.9,0-1.9-3.3-1.9-4.9C105.6,35.5,105.7,33,107.5,33z M54.1,37.6v0.5
	c0,1,0,1.8-0.4,2.6c-0.4,0.7-1,1.1-1.7,1.1c-0.9,0-1.5-0.7-1.5-1.8C50.5,38,52.4,37.6,54.1,37.6z M85.6,37.6v0.5c0,1,0,1.8-0.4,2.6
	c-0.4,0.7-1,1.1-1.7,1.1c-0.9,0-1.5-0.7-1.5-1.8C82,38,83.9,37.6,85.6,37.6z"/>
<path id="path257" fill="#010101" d="M101.2,44.6v1.8h1.2v-1.8H101.2z M65.8,44.9v12.9H67v-1.2c0.2,0.5,0.5,0.8,0.8,1
	c0.3,0.2,0.7,0.3,1.1,0.3c0.8,0,1.5-0.4,2.2-1.3s0.9-2.1,0.9-3.7c0-1-0.1-1.9-0.4-2.6c-0.3-0.7-0.6-1.3-1.1-1.6
	c-0.5-0.4-1-0.6-1.5-0.6c-0.4,0-0.8,0.1-1.1,0.3c-0.3,0.2-0.6,0.5-0.8,1v-4.6H65.8z M77.4,48c-0.8,0-1.5,0.3-2,0.8
	c-0.5,0.5-0.7,1.1-0.7,1.9c0,0.5,0.1,0.9,0.3,1.2s0.4,0.7,0.8,0.9c0.3,0.2,1,0.5,1.9,0.8c0.7,0.2,1,0.4,1.2,0.5
	c0.2,0.2,0.4,0.5,0.4,0.8c0,0.4-0.1,0.8-0.4,1.1c-0.3,0.3-0.7,0.4-1.2,0.4s-1-0.1-1.3-0.5s-0.5-0.8-0.6-1.5l-1.2,0.2
	c0.3,2,1.3,3,3,3c0.9,0,1.6-0.3,2.2-0.8s0.8-1.3,0.8-2.2c0-0.5-0.1-0.9-0.2-1.2c-0.2-0.3-0.4-0.6-0.7-0.8c-0.3-0.2-1-0.5-2-0.8
	c-0.7-0.3-1.2-0.4-1.3-0.6c-0.2-0.2-0.4-0.5-0.4-0.8c0-0.4,0.1-0.7,0.4-0.9c0.3-0.2,0.7-0.3,1.2-0.3c0.9,0,1.5,0.5,1.6,1.5l1.2-0.2
	c-0.1-0.6-0.2-1.2-0.4-1.5s-0.5-0.6-0.9-0.8C78.4,48.1,77.9,48,77.4,48z M84.9,48c-1,0-1.8,0.4-2.4,1.2c-0.6,0.8-0.9,2.1-0.9,3.7
	c0,1.6,0.3,2.8,0.9,3.6c0.6,0.8,1.4,1.2,2.5,1.2c0.8,0,1.5-0.2,2-0.8c0.5-0.5,0.9-1.3,1.2-2.2l-1.2-0.2c-0.4,1.3-1,1.9-1.9,1.9
	c-0.6,0-1.1-0.2-1.5-0.8c-0.4-0.5-0.6-1.3-0.7-2.4h5.4v-0.4c0-1.6-0.3-2.8-0.9-3.6C86.6,48.4,85.8,48,84.9,48z M92.3,48
	c-0.3,0-0.5,0.1-0.8,0.3s-0.5,0.7-0.8,1.3v-1.4h-1.1v9.3h1.2v-4.9c0-0.7,0.1-1.3,0.2-1.9c0.1-0.3,0.3-0.6,0.5-0.8s0.5-0.3,0.7-0.3
	c0.3,0,0.6,0.1,0.9,0.3l0.4-1.5C93.1,48.1,92.7,48,92.3,48z M107.2,48c-1,0-1.8,0.4-2.4,1.2c-0.6,0.8-0.9,2-0.9,3.7
	c0,1.6,0.3,2.8,0.9,3.7c0.6,0.8,1.4,1.2,2.3,1.2c0.8,0,1.4-0.3,2-0.9c0.6-0.6,0.9-1.4,1-2.6l-1.2-0.2c-0.1,0.8-0.3,1.4-0.6,1.8
	c-0.3,0.4-0.7,0.6-1.2,0.6c-0.6,0-1.1-0.3-1.5-0.8c-0.4-0.6-0.6-1.5-0.6-2.8c0-1.2,0.2-2.1,0.6-2.7s0.9-0.9,1.5-0.9
	c0.4,0,0.7,0.2,1,0.5c0.3,0.3,0.5,0.8,0.6,1.4l1.2-0.2c-0.1-1-0.5-1.7-1-2.2C108.6,48.2,108,48,107.2,48z M114.2,48
	c-1,0-1.8,0.4-2.4,1.2s-0.9,2.1-0.9,3.7c0,1.6,0.3,2.8,0.9,3.6c0.6,0.8,1.4,1.2,2.5,1.2c0.8,0,1.5-0.2,2-0.8
	c0.5-0.5,0.9-1.3,1.2-2.2l-1.2-0.2c-0.4,1.3-1,1.9-1.9,1.9c-0.6,0-1.1-0.2-1.5-0.8c-0.4-0.5-0.6-1.3-0.7-2.4h5.4v-0.4
	c0-1.6-0.3-2.8-0.9-3.6C115.9,48.4,115.1,48,114.2,48z M121.4,48c-0.8,0-1.5,0.3-2,0.8c-0.5,0.5-0.7,1.1-0.7,1.9
	c0,0.5,0.1,0.9,0.2,1.2c0.2,0.4,0.4,0.7,0.8,0.9c0.3,0.2,1,0.5,1.9,0.8c0.7,0.2,1.1,0.4,1.2,0.5c0.2,0.2,0.4,0.5,0.4,0.8
	c0,0.4-0.1,0.8-0.4,1.1c-0.3,0.3-0.7,0.4-1.2,0.4c-0.5,0-1-0.1-1.3-0.5c-0.3-0.3-0.5-0.8-0.6-1.5l-1.2,0.2c0.3,2,1.3,3,3,3
	c0.9,0,1.7-0.3,2.2-0.8c0.5-0.6,0.8-1.3,0.8-2.2c0-0.5-0.1-0.9-0.2-1.2c-0.2-0.3-0.4-0.6-0.7-0.8c-0.3-0.2-0.9-0.5-1.9-0.8
	c-0.7-0.3-1.2-0.4-1.3-0.6c-0.2-0.2-0.4-0.5-0.4-0.8c0-0.4,0.1-0.7,0.4-0.9s0.7-0.3,1.2-0.3c0.9,0,1.5,0.5,1.6,1.5l1.2-0.2
	c-0.1-0.6-0.2-1.2-0.4-1.5c-0.2-0.3-0.5-0.6-0.9-0.8C122.4,48.1,121.9,48,121.4,48z M93.5,48.2l2.7,9.3h1.2l2.7-9.3h-1.2l-1.6,5.7
	c-0.2,0.7-0.4,1.3-0.5,1.8c-0.1-0.6-0.3-1.3-0.4-1.9l-1.6-5.6H93.5z M101.2,48.2v9.3h1.2v-9.3H101.2z M61.1,48.3
	c-1,0-1.7,0.4-2.4,1.3c-0.6,0.8-1,2.1-1,3.7c0,1.6,0.3,2.7,0.9,3.6c0.6,0.8,1.5,1.2,2.5,1.2c0.8,0,1.5-0.3,2-0.8
	c0.5-0.5,0.9-1.3,1.1-2.2l-1.2-0.2c-0.4,1.3-1,1.9-1.9,1.9c-0.6,0-1.1-0.2-1.5-0.8c-0.4-0.5-0.6-1.3-0.7-2.4h5.3l0-0.4
	c0-1.6-0.3-2.8-0.9-3.6C62.8,48.7,62,48.3,61.1,48.3z M47.4,48.5l2.2,9.3h1.3l1.4-7.2l0.2,1.6l1.2,5.6H55l2.2-9.3H56l-1.2,5.4
	l-0.4,1.8L54,53.9L53,48.5h-1.2L50.6,54l-0.4,1.9l-0.4-2l-1.1-5.4H47.4z M125.2,48.6V49h1.2v3.1h0.5V49h1.2v-0.4H125.2z M128.5,48.6
	v3.6h0.4v-3l1,3h0.4l1-3v3h0.5v-3.6h-0.7l-0.8,2.5c-0.1,0.2-0.1,0.4-0.2,0.6l-0.2-0.5l-0.8-2.5H128.5z M84.8,49.3
	c0.6,0,1.1,0.3,1.5,0.9c0.3,0.4,0.4,1,0.5,1.8h-4c0-0.8,0.3-1.5,0.7-1.9S84.3,49.3,84.8,49.3z M114.2,49.3c0.6,0,1.1,0.3,1.5,0.9
	c0.3,0.4,0.4,1,0.5,1.8h-4c0-0.8,0.3-1.5,0.7-1.9C113.2,49.5,113.6,49.3,114.2,49.3z M61.1,49.6c0.6,0,1.1,0.3,1.5,0.9
	c0.3,0.4,0.4,1,0.5,1.8h-4c0-0.8,0.2-1.5,0.6-2C60.1,49.8,60.6,49.6,61.1,49.6z M68.9,49.6c0.5,0,1,0.3,1.4,0.9
	c0.4,0.6,0.5,1.5,0.5,2.7c0,1.2-0.2,2.1-0.6,2.7s-0.8,0.9-1.3,0.9c-0.4,0-0.7-0.1-1-0.4c-0.3-0.3-0.5-0.6-0.7-1.1
	c-0.2-0.5-0.2-1.2-0.2-2.2c0-1.1,0.2-2,0.6-2.6C67.9,49.9,68.4,49.6,68.9,49.6z"/>
<path id="polygon287" fill="#F6A81C" d="M29.9,39.7l-4.7,2l4.3,1.8l5-1.8L29.9,39.7z M22.9,42.2l-0.2,9l6.8,3v-9.3L22.9,42.2z
	 M36.9,42.2l-6.2,2.3v8.8l6.2-2.5V42.2z"/>
<path id="polygon311" fill="#F6A81C" d="M44.2,14.2l-4.7,2l4.3,1.8l5-1.8L44.2,14.2z M37.7,16.9v9l5.8,1.7l0.2-8.2L37.7,16.9z
	 M50.7,17.4l-5.5,2.3v8.8l5.5-2.5V17.4z"/>
<path id="use3387" fill="#F6A81C" d="M22.2,26.9l-4.7,2l4.3,1.8l5-1.8L22.2,26.9z M15.2,29.4l-0.2,9l6.8,3V32L15.2,29.4z M29.2,29.4
	l-6.2,2.3v8.8l6.2-2.5V29.4z"/>
<path id="use3389" fill="#F6A81C" d="M37.2,26.5l-4.7,2l4.3,1.8l5-1.8L37.2,26.5z M30.2,29l-0.2,9l6.8,3v-9.3L30.2,29z M44.2,29
	l-6.2,2.3v8.8l6.2-2.5V29z"/>
<path id="use3391" fill="#F6A81C" d="M58.9,14.2l-4.7,2l4.3,1.8l5-1.8L58.9,14.2z M51.9,16.7l-0.2,9l6.8,3v-9.3L51.9,16.7z
	 M65.9,16.7L59.7,19v8.8l6.2-2.5V16.7z"/>
</svg>
