<?xml version="1.0" encoding="utf-8"?>
<!-- Generator: Adobe Illustrator 18.0.0, SVG Export Plug-In . SVG Version: 6.00 Build 0)  -->
<!DOCTYPE svg PUBLIC "-//W3C//DTD SVG 1.1//EN" "http://www.w3.org/Graphics/SVG/1.1/DTD/svg11.dtd">
<svg version="1.1" id="Layer_1" xmlns="http://www.w3.org/2000/svg" xmlns:xlink="http://www.w3.org/1999/xlink" x="0px" y="0px"
	 viewBox="0 253 612 343" enable-background="new 0 253 612 343" xml:space="preserve">
<g id="Layer_1_1_">
	<circle fill="#0078EF" cx="447.6" cy="427.7" r="154.2"/>
	<g enable-background="new    ">
		<path fill="#FFFFFF" d="M81.6,273.4l128.7,206.9h0.8V273.4h63.5v308.4h-67.8L78.6,375.4h-0.9v206.5H14.2V273.4H81.6z"/>
	</g>
	<g enable-background="new    ">
		<path fill="#FFFFFF" d="M397.5,466.7c1.4,14.4,6.9,24.5,16.4,30.3c9.5,5.8,20.9,8.6,34.1,8.6c4.6,0,9.9-0.3,15.8-1.1
			c5.9-0.7,11.4-2.1,16.6-4.1c5.2-2,9.5-4.9,12.8-8.9c3.3-3.9,4.9-9,4.5-15.3c-0.3-6.3-2.6-11.5-6.9-15.5c-4.3-4-9.9-7.2-16.6-9.7
			s-14.5-4.5-23.1-6.3c-8.6-1.7-17.4-3.6-26.3-5.6c-9.2-2-18.1-4.4-26.6-7.3c-8.5-2.9-16.1-6.7-22.9-11.7
			c-6.7-4.9-12.2-11.2-16.2-18.8c-4-7.6-6-17-6-28.3c0-12.1,3-22.2,8.9-30.4c5.9-8.2,13.4-14.8,22.5-19.8s19.2-8.6,30.3-10.6
			c11.1-2,21.6-3,31.8-3c11.5,0,22.5,1.2,33.1,3.7c10.5,2.5,20,6.4,28.5,11.8c8.5,5.5,15.5,12.6,21.1,21.4
			c5.6,8.8,9.1,19.3,10.6,31.8h-51.4c-2.3-11.8-7.7-19.7-16.2-23.8S453.9,348,443,348c-3.5,0-7.6,0.3-12.3,0.9
			c-4.8,0.6-9.2,1.6-13.4,3.2s-7.7,3.9-10.6,6.9s-4.3,7-4.3,11.8c0,6.1,2.1,10.9,6.3,14.7c4.2,3.8,9.6,6.8,16.5,9.3
			c6.7,2.5,14.5,4.5,23.1,6.3c8.6,1.7,17.5,3.6,26.7,5.6c8.9,2.1,17.7,4.4,26.3,7.3c8.6,2.9,16.4,6.7,23.1,11.7
			c6.7,4.9,12.3,11.1,16.5,18.6c4.2,7.5,6.3,16.7,6.3,27.6c0,13.2-3,24.5-9,33.6c-6.1,9.2-13.9,16.7-23.5,22.5
			c-9.6,5.8-20.4,10-32.2,12.5c-11.8,2.6-23.4,3.9-35,3.9c-14.1,0-27.1-1.6-39.1-4.8c-11.9-3.1-22.3-8-31.1-14.5
			c-8.8-6.5-15.7-14.6-20.7-24.2c-5-9.6-7.7-21.1-8-34.3L397.5,466.7L397.5,466.7z"/>
	</g>
</g>
</svg>
