<?xml version="1.0" encoding="UTF-8" standalone="no"?>
<svg
   xmlns:dc="http://purl.org/dc/elements/1.1/"
   xmlns:cc="http://creativecommons.org/ns#"
   xmlns:rdf="http://www.w3.org/1999/02/22-rdf-syntax-ns#"
   xmlns:svg="http://www.w3.org/2000/svg"
   xmlns="http://www.w3.org/2000/svg"
   xmlns:sodipodi="http://sodipodi.sourceforge.net/DTD/sodipodi-0.dtd"
   xmlns:inkscape="http://www.inkscape.org/namespaces/inkscape"
   viewBox="0 0 400 117.33333"
   height="117.33333"
   width="400"
   xml:space="preserve"
   version="1.1"
   id="svg2"
   inkscape:version="0.91 r13725"
   sodipodi:docname="rackspace.svg"><sodipodi:namedview
     pagecolor="#ffffff"
     bordercolor="#666666"
     borderopacity="1"
     objecttolerance="10"
     gridtolerance="10"
     guidetolerance="10"
     inkscape:pageopacity="0"
     inkscape:pageshadow="2"
     inkscape:window-width="1159"
     inkscape:window-height="744"
     id="namedview55"
     showgrid="false"
     inkscape:zoom="1.0960155"
     inkscape:cx="200"
     inkscape:cy="58.666664"
     inkscape:window-x="55"
     inkscape:window-y="133"
     inkscape:window-maximized="0"
     inkscape:current-layer="g94" /><metadata
     id="metadata8"><rdf:RDF><cc:Work
         rdf:about=""><dc:format>image/svg+xml</dc:format><dc:type
           rdf:resource="http://purl.org/dc/dcmitype/StillImage" /><dc:title></dc:title></cc:Work></rdf:RDF></metadata><defs
     id="defs6"><clipPath
       id="clipPath18"
       clipPathUnits="userSpaceOnUse"><path
         id="path20"
         d="m 0,0 2995.73,0 0,876.352 L 0,876.352 0,0 Z" /></clipPath><clipPath
       id="clipPath74"
       clipPathUnits="userSpaceOnUse"><path
         id="path76"
         d="m 0,0 2995.73,0 0,876.352 L 0,876.352 0,0 Z" /></clipPath><clipPath
       id="clipPath96"
       clipPathUnits="userSpaceOnUse"><path
         id="path98"
         d="m 0,0 2995.73,0 0,876.352 L 0,876.352 0,0 Z" /></clipPath></defs><g
     transform="matrix(1.3333333,0,0,-1.3333333,0,117.33333)"
     id="g10"><g
       transform="scale(0.1)"
       id="g12"><g
         id="g70"><g
           clip-path="url(#clipPath74)"
           id="g72"><path
             id="path78"
             style="fill:#e3182c;fill-opacity:1;fill-rule:evenodd;stroke:none"
             d="m 478.379,798.02 c 0.152,-0.059 0.25,-0.219 0.25,-0.379 0,-0.063 -0.008,-0.11 -0.02,-0.141 -10.558,-29.91 -28.07,-63.941 -45.418,-89.762 -36.55,-54.269 -89.043,-88.508 -117.179,-76.437 -28.133,12.058 -21.371,65.859 15.218,120.16 8.239,12.187 17.258,23.359 26.622,33.23 0.058,0.09 0.109,0.18 0.109,0.289 0,0.231 -0.18,0.411 -0.41,0.411 0,0 -0.051,0 -0.063,-0.012 -11.488,-1.59 -23.136,-3.859 -34.898,-6.828 -0.078,-0.012 -0.149,-0.071 -0.211,-0.141 -123.508,-151.469 -176.07,-348.18 -168.84,-523.672 0,-0.238 -0.18,-0.41 -0.41,-0.41 -0.051,0 -0.109,0 -0.16,0.024 C 80.1719,283.68 26.9688,354.02 21.4219,443.078 l -0.0703,1.031 c -9.1914,158.45 117.1174,320.75 282.1604,362.532 63.949,16.187 124.367,11.918 174.867,-8.621 z M 334.488,707.922 c -11.84,-24.961 -7.129,-45.453 10.524,-45.762 17.66,-0.308 41.597,19.649 53.418,44.59 11.851,24.969 7.129,45.461 -10.532,45.781 -17.648,0.289 -41.578,-19.672 -53.41,-44.609" /><path
             id="path80"
             style="fill:#231f20;fill-opacity:1;fill-rule:nonzero;stroke:none"
             d="m 431.691,370.672 c -11.992,-8.332 -24.511,-16.024 -37.441,-22.961 -0.059,-0.02 -0.121,-0.039 -0.18,-0.039 -0.23,0 -0.41,0.168 -0.422,0.387 -2.418,38.043 -10.609,74.902 -24.777,105.562 C 331.09,535.48 265.051,541.789 221.422,467.68 194.73,422.32 182.57,357.328 185.859,294.949 c 0,-0.168 0.121,-0.328 0.282,-0.371 46.289,-14.5 99.621,-16.09 156.507,-1.738 164.801,41.988 290.864,204.129 281.692,362.41 -8.07,139.051 -117.738,228.898 -256.012,220.559 -0.09,0 -0.18,-0.039 -0.25,-0.118 -13.449,-13.601 -26.027,-27.332 -37.84,-41.203 -0.058,-0.066 -0.097,-0.16 -0.097,-0.25 0,-0.238 0.187,-0.418 0.41,-0.418 0.008,0 0.039,0 0.058,0.008 81.02,10.25 145.961,-6.207 188.332,-39.969 0.098,-0.078 0.161,-0.199 0.161,-0.32 0,-0.078 -0.024,-0.168 -0.063,-0.23 -146.008,-205.84 -127.93,-323.098 -87.199,-422.137 0.019,-0.051 0.031,-0.102 0.031,-0.152 0,-0.141 -0.07,-0.27 -0.18,-0.348" /></g></g><path
         id="path82"
         style="fill:#231f20;fill-opacity:1;fill-rule:nonzero;stroke:none"
         d="m 1793.61,606.148 c 34.46,0 59.92,-7.5 72.22,-14.437 0.14,-0.09 0.23,-0.262 0.19,-0.441 l -11.89,-62.411 c -0.02,-0.129 -0.12,-0.238 -0.24,-0.3 -0.12,-0.047 -0.25,-0.047 -0.37,0.011 -13.94,7.602 -38.05,15.7 -63.93,15.7 -21.72,0 -35.87,-9.09 -35.87,-24.34 0,-10.93 10.83,-20.719 33.75,-31.891 29.86,-14.91 63.59,-37.008 63.59,-76.969 0,-26.07 -8.7,-47.879 -25.83,-64.871 -22.78,-22.609 -59.75,-34.949 -104.19,-34.609 -34.19,0.57 -68.76,9.441 -86.06,21.961 -0.14,0.09 -0.2,0.258 -0.17,0.418 l 11.92,62.801 c 0.03,0.121 0.12,0.242 0.26,0.3 0.12,0.051 0.26,0.032 0.38,-0.039 18.51,-11.609 54.97,-24.133 81.74,-24.133 20.74,0 34.71,9.582 34.71,24.93 0,13.91 -9.82,23.633 -34.91,35.91 -39.69,19.84 -59.54,45 -59.54,74.66 0,58.332 49.69,97.75 124.24,97.75" /><path
         id="path84"
         style="fill:#231f20;fill-opacity:1;fill-rule:nonzero;stroke:none"
         d="m 879.199,606.73 c 4.961,0 11.063,-0.531 15.52,-1.339 0.109,-0.02 0.203,-0.082 0.261,-0.18 0.059,-0.102 0.09,-0.199 0.059,-0.313 l -16.117,-81.207 c -0.024,-0.113 -0.082,-0.203 -0.184,-0.261 -0.078,-0.071 -0.199,-0.078 -0.308,-0.071 -2.93,0.61 -7.59,1.332 -13.051,1.332 -56.899,0 -79.098,-55.621 -87.719,-101.601 L 757.461,314.949 c -0.051,-0.187 -0.211,-0.328 -0.41,-0.328 l -82.949,0 c -0.133,0 -0.25,0.059 -0.321,0.149 -0.07,0.089 -0.109,0.218 -0.09,0.351 l 54.188,284.918 c 0.031,0.199 0.211,0.34 0.41,0.34 l 72.941,0.012 c 0.141,0 0.258,-0.051 0.34,-0.153 0.059,-0.066 0.09,-0.168 0.09,-0.258 l -9.301,-48.968 c -0.07,-0.34 0,-0.774 0.422,-0.981 0.43,-0.222 0.891,-0.082 1.18,0.367 21.789,36.172 51.91,56.332 85.238,56.332" /><path
         id="path86"
         style="fill:#231f20;fill-opacity:1;fill-rule:nonzero;stroke:none"
         d="m 1020.41,317.5 c -0.09,0.109 -0.11,0.219 -0.09,0.34 l 6.97,35.308 c 0.1,0.563 -0.2,0.981 -0.68,1.082 -0.39,0.071 -0.75,-0.152 -0.92,-0.46 -15.41,-26.11 -45.581,-42.758 -79.51,-42.758 -55.692,0 -80.852,49.429 -80.879,98.898 -0.039,56.199 22.039,111.86 59.019,148.871 30.981,31 70.961,47.367 115.66,47.367 34,-0.128 59.15,-9.976 74.91,-29.078 23.34,-28.269 21.42,-70.711 15.6,-101.57 l -30.15,-157.809 c -0.04,-0.203 -0.2,-0.351 -0.41,-0.351 l -79.2,0 c -0.13,0 -0.25,0.058 -0.32,0.16 z m -31.101,208.211 c -22.508,-22.52 -39.399,-64.813 -39.379,-98.473 0.011,-29.558 10.961,-47.968 30.019,-47.968 30.491,0 56.751,31.878 65.791,78.57 2.03,10.43 4.08,21.051 5.55,30.48 1.49,9.43 2.41,17.75 2.13,23.559 -0.96,19.949 -11.34,30.699 -29.96,30.699 -11.38,0 -23.19,-5.887 -34.151,-16.867" /><path
         id="path88"
         style="fill:#231f20;fill-opacity:1;fill-rule:nonzero;stroke:none"
         d="m 2061.67,606.148 c 55.45,0 91.41,-42.027 91.41,-107.546 0,-68.711 -32.99,-139.161 -92.45,-170.864 -54.17,-28.867 -102.57,-16.207 -117.77,6.41 -0.02,0.051 -0.09,0.051 -0.09,-0.007 l -20.25,-107 c -0.02,-0.2 -0.2,-0.352 -0.41,-0.352 l -82.96,0 c -0.12,0 -0.24,0.063 -0.32,0.152 -0.08,0.098 -0.1,0.231 -0.08,0.34 l 71.22,374.547 c 0.03,0.192 0.21,0.344 0.41,0.344 l 72.95,-0.051 c 0.12,0 0.24,-0.062 0.33,-0.152 0.08,-0.098 0.09,-0.231 0.08,-0.34 l -7.25,-38.129 c -0.08,-0.422 -0.04,-0.93 0.38,-1.109 0.4,-0.153 0.84,-0.02 1.16,0.398 l 0.35,0.461 c 21.36,27.422 51.55,42.898 83.29,42.898 z m -72.08,-231.527 c 44.02,0 76.34,62.481 76.34,117.641 0,13.316 -3.14,45.668 -33.84,45.668 -31.21,0 -57.55,-35.571 -67.77,-89.5 -3.49,-18.442 -13.28,-73.809 25.27,-73.809" /><path
         id="path90"
         style="fill:#231f20;fill-opacity:1;fill-rule:nonzero;stroke:none"
         d="m 1439.99,699.488 82.38,0 c 0.12,0 0.23,-0.058 0.31,-0.136 0.09,-0.122 0.11,-0.243 0.09,-0.364 l -42.98,-226.047 c -0.02,-0.152 0.01,-0.281 0.16,-0.339 0.12,-0.071 0.28,-0.032 0.37,0.078 l 110.6,127.558 c 0.08,0.09 0.2,0.141 0.32,0.141 l 90.35,0 c 0.16,0 0.32,-0.098 0.39,-0.25 0.02,-0.059 0.04,-0.117 0.04,-0.18 0,-0.09 -0.04,-0.187 -0.11,-0.258 l -114.77,-129.293 70.01,-151.91 c 0.03,-0.058 0.03,-0.109 0.03,-0.168 0,-0.09 -0.02,-0.172 -0.05,-0.218 -0.08,-0.133 -0.21,-0.204 -0.35,-0.204 l -89.2,0 c -0.15,0 -0.31,0.09 -0.38,0.243 l -67.72,150.179 c -0.05,0.129 -0.17,0.2 -0.31,0.192 -0.14,-0.012 -0.23,-0.114 -0.27,-0.25 L 1450.39,318.23 c -0.04,-0.191 -0.21,-0.332 -0.41,-0.332 l -82.39,0 c -0.12,0 -0.24,0.063 -0.32,0.153 -0.09,0.097 -0.11,0.23 -0.09,0.34 l 72.4,380.757 c 0.02,0.211 0.2,0.34 0.41,0.34" /><g
         id="g92"><g
           clip-path="url(#clipPath96)"
           id="g94"><path
             id="path100"
             style="fill:#231f20;fill-opacity:1;fill-rule:nonzero;stroke:none"
             d="m 2828.79,606.141 c 58.99,0 98.33,-34.27 98.33,-85.082 0,-23.489 -7.64,-42.821 -22.7,-57.5 -27.63,-26.918 -79.5,-39.239 -158.88,-37.379 l -0.89,0.011 c -0.01,0.008 -0.02,0 -0.02,0 -0.01,-0.011 -0.01,-0.011 -0.01,-0.031 l 0.03,-0.89 c 0.28,-8.168 3.1,-19.7 8.43,-27.168 10.85,-13.723 30.04,-21.18 53.83,-21.18 34.76,0 64.89,8.437 97.66,27.328 0.14,0.09 0.32,0.078 0.44,-0.02 0.14,-0.101 0.2,-0.261 0.18,-0.41 l -13.21,-69.441 c -0.02,-0.117 -0.1,-0.231 -0.21,-0.289 -39.9,-20.309 -86.72,-22.512 -105.02,-22.512 -77.97,0 -122.54,43.352 -122.54,119.063 0,43.648 16.04,87.39 43.97,120 30.64,35.808 73.49,55.5 120.61,55.5 z m 19.75,-85.082 c 0,14.582 -12.08,23.781 -30.12,23.781 -35.78,0 -58.73,-28.942 -65.42,-56.262 l -0.23,-0.988 c -0.02,-0.02 -0.02,-0.039 0,-0.059 0.02,-0.019 0.03,-0.031 0.06,-0.031 l 1.01,0 c 48.5,-0.309 75.84,4.672 87.83,16.531 4.62,4.598 6.87,10.188 6.87,17.028" /><path
             id="path102"
             style="fill:#231f20;fill-opacity:1;fill-rule:nonzero;stroke:none"
             d="m 2959.41,363.672 -4.01,0 -1.51,-8.07 -1.51,-8.024 4.39,0 c 2.03,0.043 3.37,0.063 4.45,0.133 1.18,0.078 2.06,0.25 3.02,0.539 3.8,1.102 6.47,3.871 7.12,7.398 0.68,3.512 -0.94,6.262 -4.3,7.34 -0.86,0.321 -1.64,0.461 -2.81,0.551 -1.05,0.07 -2.38,0.082 -4.39,0.133 l -0.45,0 z m -8.35,5.148 c 0.02,0.078 0.09,0.141 0.18,0.141 l 9.24,0 c 2.35,-0.039 3.89,-0.051 5.08,-0.141 1.6,-0.121 2.8,-0.371 4.04,-0.8 4.65,-1.551 7.3,-5.231 7.3,-9.911 0,-0.82 -0.09,-1.648 -0.26,-2.507 -1.07,-5.774 -4.7,-10.454 -11.4,-12.301 l 5.87,-17.313 c 0,-0.019 0.01,-0.027 0.01,-0.058 0,-0.032 -0.01,-0.059 -0.03,-0.09 -0.04,-0.059 -0.09,-0.078 -0.15,-0.078 l -5.94,0 c -0.08,0 -0.15,0.047 -0.17,0.117 l -5.61,16.48 -3.66,-0.078 -4.18,0 -3.07,-16.383 c -0.01,-0.078 -0.1,-0.136 -0.18,-0.136 l -4.93,0 c -0.05,0 -0.11,0.019 -0.15,0.066 -0.02,0.043 -0.05,0.082 -0.05,0.141 l 3.13,16.519 0.03,0.223 2.45,12.949 2.45,13.16 z m -28.53,-21.55 c 1.83,20.171 19.63,36.531 39.8,36.531 20.17,0 35.05,-16.36 33.25,-36.531 -1.83,-20.161 -19.65,-36.508 -39.81,-36.508 -20.17,0 -35.05,16.347 -33.24,36.508 z m 4.96,-0.45 c -1.56,-17.281 11.04,-31.09 28.28,-31.09 17.57,0 33.27,14.379 34.84,31.981 1.55,17.301 -11.05,31.109 -28.28,31.109 -17.57,0 -33.24,-14.371 -34.84,-32" /></g></g><path
         id="path104"
         style="fill:#231f20;fill-opacity:1;fill-rule:nonzero;stroke:none"
         d="m 2313.78,317.5 c -0.07,0.109 -0.1,0.219 -0.07,0.34 l 6.97,35.308 c 0.09,0.563 -0.21,0.981 -0.69,1.082 -0.4,0.071 -0.75,-0.152 -0.92,-0.46 -15.41,-26.11 -45.58,-42.758 -79.51,-42.758 -55.69,0 -80.85,49.429 -80.88,98.898 -0.04,56.199 22.04,111.86 59.02,148.871 30.98,31 70.96,47.367 115.65,47.367 34.01,-0.128 59.16,-9.976 74.93,-29.078 23.33,-28.269 21.41,-70.711 15.59,-101.57 l -30.15,-157.809 c -0.03,-0.203 -0.2,-0.351 -0.41,-0.351 l -79.19,0 c -0.14,0 -0.26,0.058 -0.34,0.16 z m -31.09,208.211 c -22.51,-22.52 -39.4,-64.813 -39.38,-98.473 0.01,-29.558 10.96,-47.968 30.02,-47.968 30.49,0 56.75,31.878 65.79,78.57 2.03,10.43 4.08,21.051 5.55,30.48 1.5,9.43 2.41,17.75 2.14,23.559 -0.98,19.949 -11.36,30.699 -29.97,30.699 -11.39,0 -23.19,-5.887 -34.15,-16.867" /><path
         id="path106"
         style="fill:#231f20;fill-opacity:1;fill-rule:nonzero;stroke:none"
         d="m 2621.81,605.57 c 21.16,0 42.76,-3.691 57.76,-9.82 0.18,-0.078 0.29,-0.27 0.25,-0.469 l -12.81,-67.222 c -0.03,-0.129 -0.11,-0.25 -0.23,-0.297 -0.13,-0.051 -0.27,-0.051 -0.39,0.019 -12.93,7.231 -27.9,10.731 -45.74,10.731 -59.65,0 -95.19,-52.012 -95.19,-102.114 0,-42.519 28.4,-57.757 54.88,-57.757 23.67,0 43.79,5.179 69.34,17.757 0.15,0.071 0.32,0.063 0.44,-0.027 0.14,-0.101 0.19,-0.269 0.16,-0.41 l -13.08,-69.07 c -0.03,-0.11 -0.12,-0.231 -0.23,-0.289 -19.39,-9.372 -49.39,-15.012 -80.25,-15.012 -72.39,0 -119.06,45.351 -119.06,115.601 0,101.688 79.13,178.379 184.15,178.379" /><path
         id="path108"
         style="fill:#231f20;fill-opacity:1;fill-rule:nonzero;stroke:none"
         d="m 1328.43,605.57 c 21.16,0 42.76,-3.691 57.76,-9.82 0.18,-0.078 0.29,-0.27 0.25,-0.469 l -12.81,-67.222 c -0.03,-0.129 -0.11,-0.25 -0.24,-0.297 -0.12,-0.051 -0.26,-0.051 -0.38,0.019 -12.93,7.231 -27.9,10.731 -45.74,10.731 -59.65,0 -95.19,-52.012 -95.19,-102.114 0,-42.519 28.4,-57.757 54.88,-57.757 23.67,0 43.78,5.179 69.34,17.757 0.15,0.071 0.32,0.063 0.44,-0.027 0.13,-0.101 0.19,-0.269 0.16,-0.41 l -13.08,-69.07 c -0.03,-0.11 -0.11,-0.231 -0.23,-0.289 -19.39,-9.372 -49.39,-15.012 -80.25,-15.012 -72.4,0 -119.06,45.351 -119.06,115.601 0,101.688 79.13,178.379 184.15,178.379" /></g></g></svg>